{
  "accessors": [
    {
      "bufferView": 2,
      "componentType": 5126,
      "count": 59940,
      "max": [
        276.07431030273438,
        572.89984130859375,
        683.78851318359375
      ],
      "min": [
        -276.06149291992188,
        -651.52044677734375,
        8.7209997177124023
      ],
      "type": "VEC3"
    },
    {
      "bufferView": 2,
      "byteOffset": 719280,
      "componentType": 5126,
      "count": 59940,
      "max": [
        1,
        1,
        1
      ],
      "min": [
        -1,
        -1,
        -1
      ],
      "type": "VEC3"
    },
    {
      "bufferView": 3,
      "componentType": 5126,
      "count": 59940,
      "max": [
        1,
        1,
        1,
        1
      ],
      "min": [
        -1,
        -1,
        -1,
        -1
      ],
      "type": "VEC4"
    },
    {
      "bufferView": 1,
      "componentType": 5126,
      "count": 59940,
      "max": [
        0.99919998645782471,
        0.99980002641677856
      ],
      "min": [
        0.0010000000474974513,
        0.0010999999940395355
      ],
      "type": "VEC2"
    },
    {
      "bufferView": 0,
      "componentType": 5125,
      "count": 153342,
      "max": [
        59939
      ],
      "min": [
        0
      ],
      "type": "SCALAR"
    },
    {
      "bufferView": 2,
      "byteOffset": 1438560,
      "componentType": 5126,
      "count": 368,
      "max": [
        254.84152221679688,
        533.52374267578125,
        171.9886474609375
      ],
      "min": [
        -254.84152221679688,
        -479.86727905273438,
        -0.77962499856948853
      ],
      "type": "VEC3"
    },
    {
      "bufferView": 2,
      "byteOffset": 1442976,
      "componentType": 5126,
      "count": 368,
      "max": [
        1,
        0.99638646841049194,
        1
      ],
      "min": [
        -1,
        -0.99638676643371582,
        -1
      ],
      "type": "VEC3"
    },
    {
      "bufferView": 3,
      "byteOffset": 959040,
      "componentType": 5126,
      "count": 368,
      "max": [
        0.00031971829594112933,
        1,
        0.99643254280090332,
        1
      ],
      "min": [
        -0.00031971829594112933,
        -0.99668198823928833,
        -0.99641209840774536,
        -1
      ],
      "type": "VEC4"
    },
    {
      "bufferView": 1,
      "byteOffset": 479520,
      "componentType": 5126,
      "count": 368,
      "max": [
        0.99940001964569092,
        0.99500000476837158
      ],
      "min": [
        -9.6675996780395508,
        0.004999999888241291
      ],
      "type": "VEC2"
    },
    {
      "bufferView": 0,
      "byteOffset": 613368,
      "componentType": 5125,
      "count": 1056,
      "max": [
        367
      ],
      "min": [
        0
      ],
      "type": "SCALAR"
    }
  ],
  "asset": {
    "extras": {
      "author": "CG Duck (https://sketchfab.com/cg_duck)",
      "license": "CC-BY-NC-4.0 (http://creativecommons.org/licenses/by-nc/4.0/)",
      "source": "https://sketchfab.com/3d-models/merkava-tank-2f224c120b474b08a2aedc445c154102",
      "title": "Merkava Tank"
    },
    "generator": "Sketchfab-5.39.0",
    "version": "2.0"
  },
  "bufferViews": [
    {
      "buffer": 0,
      "byteLength": 617592,
      "byteOffset": 0,
      "name": "floatBufferViews",
      "target": 34963
    },
    {
      "buffer": 0,
      "byteLength": 482464,
      "byteOffset": 617592,
      "byteStride": 8,
      "name": "floatBufferViews",
      "target": 34962
    },
    {
      "buffer": 0,
      "byteLength": 1447392,
      "byteOffset": 1100056,
      "byteStride": 12,
      "name": "floatBufferViews",
      "target": 34962
    },
    {
      "buffer": 0,
      "byteLength": 964928,
      "byteOffset": 2547448,
      "byteStride": 16,
      "name": "floatBufferViews",
      "target": 34962
    }
  ],
  "buffers": [
    {
      "byteLength": 3512376,
      "uri": "scene.bin"
    }
  ],
  "images": [
    {
      "uri": "textures/body_emissive.jpeg"
    },
    {
      "uri": "textures/body_baseColor.jpeg"
    },
    {
      "uri": "textures/body_normal.jpeg"
    },
    {
      "uri": "textures/track_emissive.jpeg"
    },
    {
      "uri": "textures/track_baseColor.jpeg"
    },
    {
      "uri": "textures/track_normal.jpeg"
    }
  ],
  "materials": [
    {
      "doubleSided": true,
      "emissiveFactor": [
        0.41999999999999998,
        0.41999999999999998,
        0.41999999999999998
      ],
      "emissiveTexture": {
        "index": 0,
        "texCoord": 0
      },
      "name": "body",
      "normalTexture": {
        "index": 2,
        "scale": 1,
        "texCoord": 0
      },
      "pbrMetallicRoughness": {
        "baseColorFactor": [
          1,
          1,
          1,
          1
        ],
        "baseColorTexture": {
          "index": 1,
          "texCoord": 0
        },
        "metallicFactor": 0,
        "roughnessFactor": 0.59999999999999998
      }
    },
    {
      "doubleSided": true,
      "emissiveFactor": [
        0.41999999999999998,
        0.41999999999999998,
        0.41999999999999998
      ],
      "emissiveTexture": {
        "index": 3,
        "texCoord": 0
      },
      "name": "track",
      "normalTexture": {
        "index": 5,
        "scale": 1,
        "texCoord": 0
      },
      "pbrMetallicRoughness": {
        "baseColorFactor": [
          1,
          1,
          1,
          1
        ],
        "baseColorTexture": {
          "index": 4,
          "texCoord": 0
        },
        "metallicFactor": 0,
        "roughnessFactor": 0.59999999999999998
      }
    }
  ],
  "meshes": [
    {
      "primitives": [
        {
          "attributes": {
            "NORMAL": 1,
            "POSITION": 0,
            "TANGENT": 2,
            "TEXCOORD_0": 3
          },
          "indices": 4,
          "material": 0,
          "mode": 4
        }
      ]
    },
    {
      "primitives": [
        {
          "attributes": {
            "NORMAL": 6,
            "POSITION": 5,
            "TANGENT": 7,
            "TEXCOORD_0": 8
          },
          "indices": 9,
          "material": 1,
          "mode": 4
        }
      ]
    }
  ],
  "nodes": [
    {
      "children": [
        1
      ],
      "name": "RootNode (gltf orientation matrix)",
      "rotation": [
        -0.70710678118654746,
        -0,
        -0,
        0.70710678118654757
      ]
    },
    {
      "children": [
        2
      ],
      "name": "RootNode (model correction matrix)"
    },
    {
      "children": [
        3,
        4
      ],
      "name": "Merkava_Tank.obj.cleaner.materialmerger.gles"
    },
    {
      "mesh": 0,
      "name": ""
    },
    {
      "mesh": 1,
      "name": ""
    }
  ],
  "samplers": [
    {
      "magFilter": 9729,
      "minFilter": 9987,
      "wrapS": 10497,
      "wrapT": 10497
    }
  ],
  "scene": 0,
  "scenes": [
    {
      "name": "OSG_Scene",
      "nodes": [
        0
      ]
    }
  ],
  "textures": [
    {
      "sampler": 0,
      "source": 0
    },
    {
      "sampler": 0,
      "source": 1
    },
    {
      "sampler": 0,
      "source": 2
    },
    {
      "sampler": 0,
      "source": 3
    },
    {
      "sampler": 0,
      "source": 4
    },
    {
      "sampler": 0,
      "source": 5
    }
  ]
}

